# xmcd CD database file
#
# Track frame offsets:
#	150
#	11834
#	24615
#	34526
#	47772
#	60277
#	72945
#	84782
#	98489
#	109877
#
# Disc length: 1685 seconds
#
# Revision: 0
# Processed by: cddbd v1.5.1PL0 Copyright (c) Steve Scherf et al.
# Submitted via: CDex 1.50
#
DISCID=6f06930a
DTITLE=Wayne Kemp - One Song At A Time
DYEAR=2005
DGENRE=Country
TTITLE0=Wayne Kemp =The Fireman
TTITLE1=Wayne Kemp =Somehow Without You
TTITLE2=Wayne Kemp =A Little Bit Weaker
TTITLE3=Wayne Kemp =Don't Send Me No Angels
TTITLE4=Wayne Kemp =Crying For Their Mamas
TTITLE5=Wayne Kemp =Pretty Boy Floyd
TTITLE6=Wayne Kemp =Hole In My Heart
TTITLE7=Wayne Kemp =The Only Hell Mama Ever Tried To Raise
TTITLE8=Wayne Kemp =Lesson In Love
TTITLE9=Wayne Kemp =One Piece At A Time
EXTD=YEAR: 2005
EXTT0=
EXTT1=
EXTT2=
EXTT3=
EXTT4=
EXTT5=
EXTT6=
EXTT7=
EXTT8=
EXTT9=
PLAYORDER=
